# Blender v2.78 (sub 0) OBJ File: ''
# www.blender.org
mtllib arrowUpTest.mtl
o Cube
v 0.098143 -0.287989 -0.287989
v 0.098143 -0.287989 0.287989
v 0.054254 -0.287989 0.287989
v 0.054254 -0.287989 -0.287989
v 0.098142 0.287989 -0.001502
v 0.098142 0.287989 -0.000491
v 0.054254 0.287989 -0.000491
v 0.054254 0.287989 -0.001502
vn 0.0000 -1.0000 -0.0000
vn -1.0000 -0.0000 -0.0000
vn 0.0000 1.0000 0.0000
vn 1.0000 0.0000 0.0000
vn 0.0103 0.4460 -0.8950
vn -0.0000 0.4478 0.8941
usemtl Material
s off
f 1//1 2//1 3//1 4//1
f 7//2 8//2 4//2 3//2
f 5//3 8//3 7//3 6//3
f 5//4 6//4 2//4 1//4
f 4//5 8//5 6//5 1//5
f 3//6 2//6 6//6 7//6
