# Blender v2.78 (sub 0) OBJ File: 'Aufzug.blend'
# www.blender.org
mtllib Aufzug.mtl
o Cube_Cube.001
v -3.449351 -3.291717 1.830620
v -3.449351 3.291717 1.830620
v -3.449351 -3.291717 -1.830620
v -3.449351 3.291717 -1.830620
v 1.830620 -3.291717 1.830620
v 1.830620 3.291717 1.830620
v 1.830620 -3.291717 -1.830620
v 1.830620 3.291717 -1.830620
v -3.889391 -3.716563 2.381378
v -3.889391 3.716563 2.381378
v -3.889391 -3.716563 -2.381378
v -3.889391 3.716563 -2.381378
v 1.830620 -3.716563 2.381378
v 1.830620 3.716563 2.381378
v 1.830620 -3.716563 -2.381378
v 1.830620 3.716563 -2.381378
v -3.889391 -3.292391 2.381378
v -3.889391 -3.292391 -2.381378
v 1.830620 -3.292391 -2.381378
v 1.830620 -3.292391 2.381378
v -3.889391 -3.716563 -1.831802
v -3.889391 -3.716563 1.831803
v -3.889391 3.716563 1.831802
v -3.889391 3.716563 -1.831803
v 1.830620 -3.716563 1.831802
v 1.830620 -3.716563 -1.831803
v 1.830620 3.716563 -1.831802
v 1.830620 3.716563 1.831803
v -3.889391 -3.292391 1.831802
v -3.889391 -3.292391 -1.831803
v -3.889391 3.308029 2.381378
v -3.889391 3.308029 -2.381378
v 1.830620 3.308029 -2.381378
v 1.830620 3.308029 2.381378
v -3.889391 3.308029 1.831802
v -3.889391 3.308029 -1.831803
v 1.424786 -3.288837 1.829607
v 1.834926 -3.288837 1.829607
v 1.424786 3.280859 1.829607
v 1.834926 3.280859 1.829607
v 1.424786 3.280859 1.667328
v 1.424786 -3.288837 1.667328
v 1.834926 -3.288837 1.667328
v 1.834926 3.280859 1.667328
v 1.424786 3.280859 -1.662880
v 1.424786 -3.288837 -1.662880
v 1.834926 -3.288837 -1.662880
v 1.834926 3.280859 -1.662880
v 1.424786 3.280859 -1.825160
v 1.834926 3.280859 -1.825160
v 1.424786 -3.288837 -1.825160
v 1.834926 -3.288837 -1.825160
vt 0.7570 0.5888
vt 0.7570 0.7559
vt 0.5899 0.7559
vt 0.5899 0.5888
vt 0.7570 0.9969
vt 0.5899 0.9969
vt 0.7569 0.3478
vt 0.5898 0.3478
vt 0.9980 0.5888
vt 0.9980 0.7559
vt 0.3489 0.7560
vt 0.3489 0.5889
vt 0.0727 1.2866
vt 0.0693 1.2866
vt 0.0693 1.2783
vt 0.0727 1.2783
vt 0.0693 1.1926
vt 0.0727 1.1926
vt 0.0727 1.4355
vt 0.0693 1.4355
vt 0.0693 1.3498
vt 0.0727 1.3498
vt 0.1312 1.3415
vt 0.2170 1.3415
vt 0.2170 1.3498
vt 0.1312 1.3498
vt -0.0165 1.3415
vt 0.0693 1.3415
vt -0.0165 1.3498
vt 0.2119 1.2836
vt 0.2083 1.2836
vt 0.2083 1.1978
vt 0.2119 1.1978
vt 0.2346 1.6758
vt 0.2263 1.6758
vt 0.2263 1.4732
vt 0.2346 1.4732
vt 0.1312 1.2866
vt 0.1277 1.2866
vt 0.1277 1.2783
vt 0.1312 1.2783
vt 0.1277 1.3498
vt 0.1277 1.3415
vt 0.2501 1.2666
vt 0.2440 1.2666
vt 0.2440 1.1718
vt 0.2501 1.1718
vt -0.0165 1.2783
vt -0.0165 1.2866
vt 0.2170 1.2783
vt 0.2170 1.2866
vt 0.0727 1.3415
vt -0.0378 1.3545
vt -0.0265 1.3545
vt -0.0265 1.3593
vt -0.0378 1.3593
vt 0.0599 1.3545
vt 0.0599 1.3593
vt 0.0486 1.3593
vt 0.0486 1.3545
vt 0.1277 1.4355
vt 0.1277 1.1926
vt -0.0378 1.4393
vt -0.0378 1.4346
vt -0.0265 1.4344
vt -0.0265 1.4393
vt 0.0599 1.4346
vt 0.0486 1.4344
vt 0.0599 1.4393
vt 0.0486 1.4393
vt 0.2921 0.9657
vt 0.2921 0.9963
vt 0.0193 0.9963
vt 0.0193 0.9657
vt 0.0150 0.3902
vt 0.2878 0.3903
vt 0.2878 0.4939
vt 0.0150 0.4939
vt 0.0193 0.9984
vt 0.0072 0.9984
vt 0.0072 0.7256
vt 0.0193 0.7256
vt 0.3355 0.3874
vt 0.2511 0.3874
vt 0.2511 0.1147
vt 0.3355 0.1147
vt 0.0072 0.6950
vt 0.0193 0.6950
vt 0.2921 0.9682
vt 0.3042 0.9682
vt 0.3042 0.9988
vt 0.2921 0.9988
vt 0.0195 0.6950
vt 0.0074 0.6950
vt 0.0074 0.7256
vt 0.0195 0.7256
vt 0.2923 0.9963
vt 0.2923 0.9657
vt 0.0195 0.9657
vt 0.0195 0.9963
vt 0.3367 0.1147
vt 0.2524 0.1147
vt 0.2524 0.3874
vt 0.3367 0.3874
vt 0.2923 0.9988
vt 0.3044 0.9988
vt 0.3044 0.9682
vt 0.2923 0.9682
vt 0.0152 0.4940
vt 0.2879 0.4940
vt 0.2879 0.3903
vt 0.0152 0.3903
vt 0.0074 0.9984
vt 0.0195 0.9984
vn 1.0000 0.0000 0.0000
vn 0.0000 0.0000 1.0000
vn 0.0000 0.0000 -1.0000
vn 0.0000 1.0000 0.0000
vn 0.0000 -1.0000 0.0000
vn -1.0000 0.0000 0.0000
usemtl None
s off
f 1/1/1 3/2/1 4/3/1 2/4/1
f 3/2/2 7/5/2 8/6/2 4/3/2
f 5/7/3 1/1/3 2/4/3 6/8/3
f 3/2/4 1/1/4 5/9/4 7/10/4
f 8/11/5 6/12/5 2/4/5 4/3/5
f 36/13/6 24/14/6 12/15/6 32/16/6
f 32/16/3 12/15/3 16/17/3 33/18/3
f 34/19/2 14/20/2 10/21/2 31/22/2
f 22/23/5 25/24/5 13/25/5 9/26/5
f 28/27/4 23/28/4 10/21/4 14/29/4
f 13/30/2 20/31/2 17/32/2 9/33/2
f 11/34/3 18/35/3 19/36/3 15/37/3
f 21/38/6 30/39/6 18/40/6 11/41/6
f 9/26/6 17/42/6 29/43/6 22/23/6
f 22/44/6 29/45/6 30/46/6 21/47/6
f 16/48/4 12/15/4 24/14/4 27/49/4
f 27/49/4 24/14/4 23/28/4 28/27/4
f 11/41/5 15/50/5 26/51/5 21/38/5
f 21/38/5 26/51/5 25/24/5 22/23/5
f 31/22/6 10/21/6 23/28/6 35/52/6
f 35/52/6 23/28/6 24/14/6 36/13/6
f 13/53/1 25/54/1 5/55/1 20/56/1
f 15/57/1 19/58/1 7/59/1 26/60/1
f 7/59/1 5/55/1 25/54/1 26/60/1
f 29/43/6 35/52/6 36/13/6 30/39/6
f 17/42/6 31/22/6 35/52/6 29/43/6
f 20/61/2 34/19/2 31/22/2 17/42/2
f 18/40/3 32/16/3 33/18/3 19/62/3
f 30/39/6 36/13/6 32/16/6 18/40/6
f 14/63/1 34/64/1 6/65/1 28/66/1
f 5/55/1 6/65/1 34/64/1 20/56/1
f 7/59/1 19/58/1 33/67/1 8/68/1
f 16/69/1 27/70/1 8/68/1 33/67/1
f 6/65/1 8/68/1 27/70/1 28/66/1
usemtl None_NONE
f 37/71/2 38/72/2 40/73/2 39/74/2
f 42/75/3 41/76/3 44/77/3 43/78/3
f 38/79/1 43/80/1 44/81/1 40/82/1
f 39/83/6 41/84/6 42/85/6 37/86/6
f 40/82/4 44/81/4 41/87/4 39/88/4
f 37/89/5 42/90/5 43/91/5 38/92/5
f 49/93/4 45/94/4 48/95/4 50/96/4
f 52/97/3 51/98/3 49/99/3 50/100/3
f 51/101/6 46/102/6 45/103/6 49/104/6
f 52/105/5 47/106/5 46/107/5 51/108/5
f 47/109/2 48/110/2 45/111/2 46/112/2
f 50/96/1 48/95/1 47/113/1 52/114/1
